<?xml version="1.0" encoding="utf-8"?>
<svg width="24px" height="24px" viewBox="0 0 24 24" version="1.1" xmlns:xlink="http://www.w3.org/1999/xlink" xmlns="http://www.w3.org/2000/svg">
  <desc>Created with Lunacy</desc>
  <path d="M11.9518 0C5.35142 0 0 5.40068 0 12.0618C0 18.1088 4.4142 23.1024 10.165 23.9749L10.165 15.2582L7.20794 15.2582L7.20794 12.088L10.165 12.088L10.165 9.97814C10.165 6.48524 11.8512 4.95238 14.7276 4.95238C16.1051 4.95238 16.8341 5.05591 17.1787 5.10215L17.1787 7.86933L15.2166 7.86933C13.9956 7.86933 13.5693 9.03832 13.5693 10.3551L13.5693 12.088L17.1479 12.088L16.6628 15.2582L13.5693 15.2582L13.5693 24C19.4028 23.2019 23.9036 18.1681 23.9036 12.0618C23.9036 5.40068 18.5522 0 11.9518 0L11.9518 0Z" id="Shape" fill="#3F51B5" stroke="none" />
</svg>