<?xml version="1.0" encoding="utf-8"?>
<svg width="24px" height="24px" viewBox="0 0 24 24" version="1.1" xmlns:xlink="http://www.w3.org/1999/xlink" xmlns="http://www.w3.org/2000/svg">
  <desc>Created with Lunacy</desc>
  <g id="Google-icon">
    <path d="M0 0L24 0L24 24L0 24L0 0Z" id="Background" fill="none" stroke="none" />
    <path d="M19.8055 8.0415L19 8.0415L19 8L10 8L10 12L15.6515 12C14.827 14.3285 12.6115 16 10 16C6.6865 16 4 13.3135 4 10C4 6.6865 6.6865 4 10 4C11.5295 4 12.921 4.577 13.9805 5.5195L16.809 2.691C15.023 1.0265 12.634 0 10 0C4.4775 0 0 4.4775 0 10C0 15.5225 4.4775 20 10 20C15.5225 20 20 15.5225 20 10C20 9.3295 19.931 8.675 19.8055 8.0415L19.8055 8.0415Z" transform="translate(2 2)" id="Shape" fill="#FFC107" stroke="none" />
    <path d="M0 5.3455L3.2855 7.755C4.1745 5.554 6.3275 4 8.847 4C10.3765 4 11.768 4.577 12.8275 5.5195L15.656 2.691C13.87 1.0265 11.481 0 8.847 0C5.006 0 1.675 2.1685 0 5.3455L0 5.3455Z" transform="translate(3.152832 2)" id="Shape" fill="#FF3D00" stroke="none" />
    <path d="M8.9025 7.973C11.4855 7.973 13.8325 6.9845 15.607 5.377L12.512 2.758C11.508 3.5185 10.26 3.973 8.9025 3.973C6.3015 3.973 4.093 2.3145 3.261 0L0 2.5125C1.655 5.751 5.016 7.973 8.9025 7.973L8.9025 7.973Z" transform="translate(3.097656 14.02698)" id="Shape" fill="#4CAF50" stroke="none" />
    <path d="M9.8055 0.0415001L9 0.0415001L9 0L0 0L0 4L5.6515 4C5.2555 5.1185 4.536 6.083 3.608 6.7855C3.6085 6.785 3.609 6.785 3.6095 6.7845L6.7045 9.4035C6.4855 9.6025 10 7 10 2C10 1.3295 9.931 0.675 9.8055 0.0415001L9.8055 0.0415001Z" transform="translate(12 10)" id="Shape" fill="#1976D2" stroke="none" />
  </g>
</svg>